<mxfile host="app.diagrams.net" modified="2024-06-18T12:20:18.220Z" agent="Mozilla/5.0 (Windows NT 10.0; Win64; x64) AppleWebKit/537.36 (KHTML, like Gecko) Chrome/126.0.0.0 Safari/537.36 Edg/126.0.0.0" etag="LkPqQc6qYNLFpI0O3yEP" version="24.5.5" type="device">
  <diagram name="Page-1" id="s-yWlfN3-rqC3N8dhx5P">
    <mxGraphModel dx="1386" dy="785" grid="1" gridSize="10" guides="1" tooltips="1" connect="1" arrows="1" fold="1" page="1" pageScale="1" pageWidth="850" pageHeight="1100" math="0" shadow="0">
      <root>
        <mxCell id="0" />
        <mxCell id="1" parent="0" />
        <mxCell id="1g0KvwPyViDFInPMVQcX-3" value="" style="edgeStyle=orthogonalEdgeStyle;rounded=0;orthogonalLoop=1;jettySize=auto;html=1;" parent="1" source="1g0KvwPyViDFInPMVQcX-1" target="1g0KvwPyViDFInPMVQcX-2" edge="1">
          <mxGeometry relative="1" as="geometry" />
        </mxCell>
        <mxCell id="1g0KvwPyViDFInPMVQcX-1" value="user types in search bar" style="strokeWidth=2;html=1;shape=mxgraph.flowchart.start_1;whiteSpace=wrap;fillColor=#f0a30a;strokeColor=#BD7000;fontColor=#000000;" parent="1" vertex="1">
          <mxGeometry x="40" y="160" width="100" height="60" as="geometry" />
        </mxCell>
        <mxCell id="1g0KvwPyViDFInPMVQcX-5" value="" style="edgeStyle=orthogonalEdgeStyle;rounded=0;orthogonalLoop=1;jettySize=auto;html=1;" parent="1" source="1g0KvwPyViDFInPMVQcX-2" target="1g0KvwPyViDFInPMVQcX-4" edge="1">
          <mxGeometry relative="1" as="geometry" />
        </mxCell>
        <mxCell id="A3Rm09WbnpzHtcd4-phA-3" style="edgeStyle=orthogonalEdgeStyle;rounded=0;orthogonalLoop=1;jettySize=auto;html=1;" parent="1" source="1g0KvwPyViDFInPMVQcX-2" target="1g0KvwPyViDFInPMVQcX-13" edge="1">
          <mxGeometry relative="1" as="geometry" />
        </mxCell>
        <mxCell id="1g0KvwPyViDFInPMVQcX-2" value="Fetch movies" style="rounded=1;whiteSpace=wrap;html=1;fillColor=#e51400;strokeColor=#B20000;fontColor=#ffffff;" parent="1" vertex="1">
          <mxGeometry x="180" y="160" width="120" height="60" as="geometry" />
        </mxCell>
        <mxCell id="1g0KvwPyViDFInPMVQcX-7" value="" style="edgeStyle=orthogonalEdgeStyle;rounded=0;orthogonalLoop=1;jettySize=auto;html=1;dashed=1;" parent="1" source="1g0KvwPyViDFInPMVQcX-4" target="1g0KvwPyViDFInPMVQcX-6" edge="1">
          <mxGeometry relative="1" as="geometry" />
        </mxCell>
        <mxCell id="1g0KvwPyViDFInPMVQcX-4" value="Render movies in&lt;div&gt;search dropdown&lt;/div&gt;" style="rounded=1;whiteSpace=wrap;html=1;fillColor=#6d8764;fontColor=#ffffff;strokeColor=#3A5431;" parent="1" vertex="1">
          <mxGeometry x="350" y="160" width="120" height="60" as="geometry" />
        </mxCell>
        <mxCell id="1g0KvwPyViDFInPMVQcX-9" value="" style="edgeStyle=orthogonalEdgeStyle;rounded=0;orthogonalLoop=1;jettySize=auto;html=1;" parent="1" source="1g0KvwPyViDFInPMVQcX-6" target="1g0KvwPyViDFInPMVQcX-8" edge="1">
          <mxGeometry relative="1" as="geometry" />
        </mxCell>
        <mxCell id="1g0KvwPyViDFInPMVQcX-6" value="user clicks on dropdown item" style="strokeWidth=2;html=1;shape=mxgraph.flowchart.start_1;whiteSpace=wrap;fillColor=#f0a30a;strokeColor=#BD7000;fontColor=#000000;" parent="1" vertex="1">
          <mxGeometry x="360" y="270" width="100" height="60" as="geometry" />
        </mxCell>
        <mxCell id="1g0KvwPyViDFInPMVQcX-8" value="Render detailed movie in main view" style="rounded=1;whiteSpace=wrap;html=1;fillColor=#6d8764;fontColor=#ffffff;strokeColor=#3A5431;" parent="1" vertex="1">
          <mxGeometry x="510" y="270" width="120" height="60" as="geometry" />
        </mxCell>
        <mxCell id="1g0KvwPyViDFInPMVQcX-15" style="edgeStyle=orthogonalEdgeStyle;rounded=0;orthogonalLoop=1;jettySize=auto;html=1;entryX=0.5;entryY=1;entryDx=0;entryDy=0;" parent="1" source="1g0KvwPyViDFInPMVQcX-10" target="1g0KvwPyViDFInPMVQcX-2" edge="1">
          <mxGeometry relative="1" as="geometry" />
        </mxCell>
        <mxCell id="1g0KvwPyViDFInPMVQcX-10" value="user submits query" style="strokeWidth=2;html=1;shape=mxgraph.flowchart.start_1;whiteSpace=wrap;fillColor=#f0a30a;strokeColor=#BD7000;fontColor=#000000;" parent="1" vertex="1">
          <mxGeometry x="40" y="330" width="100" height="60" as="geometry" />
        </mxCell>
        <mxCell id="1g0KvwPyViDFInPMVQcX-18" value="" style="edgeStyle=orthogonalEdgeStyle;rounded=0;orthogonalLoop=1;jettySize=auto;html=1;dashed=1;" parent="1" source="1g0KvwPyViDFInPMVQcX-13" target="1g0KvwPyViDFInPMVQcX-17" edge="1">
          <mxGeometry relative="1" as="geometry" />
        </mxCell>
        <mxCell id="1g0KvwPyViDFInPMVQcX-13" value="Render movies in main view" style="rounded=1;whiteSpace=wrap;html=1;fillColor=#6d8764;fontColor=#ffffff;strokeColor=#3A5431;" parent="1" vertex="1">
          <mxGeometry x="300" y="440" width="120" height="60" as="geometry" />
        </mxCell>
        <mxCell id="1g0KvwPyViDFInPMVQcX-19" style="edgeStyle=orthogonalEdgeStyle;rounded=0;orthogonalLoop=1;jettySize=auto;html=1;" parent="1" source="1g0KvwPyViDFInPMVQcX-17" target="1g0KvwPyViDFInPMVQcX-8" edge="1">
          <mxGeometry relative="1" as="geometry" />
        </mxCell>
        <mxCell id="1g0KvwPyViDFInPMVQcX-17" value="user clicks on movies list item" style="strokeWidth=2;html=1;shape=mxgraph.flowchart.start_1;whiteSpace=wrap;fillColor=#f0a30a;strokeColor=#BD7000;fontColor=#000000;" parent="1" vertex="1">
          <mxGeometry x="520" y="440" width="100" height="60" as="geometry" />
        </mxCell>
        <mxCell id="A3Rm09WbnpzHtcd4-phA-4" value="Bind&amp;nbsp;&lt;div&gt;handler&lt;/div&gt;" style="text;html=1;align=center;verticalAlign=middle;resizable=0;points=[];autosize=1;strokeColor=none;fillColor=none;" parent="1" vertex="1">
          <mxGeometry x="420" y="230" width="60" height="40" as="geometry" />
        </mxCell>
        <mxCell id="A3Rm09WbnpzHtcd4-phA-5" value="Bind&amp;nbsp;&lt;div&gt;handler&lt;/div&gt;" style="text;html=1;align=center;verticalAlign=middle;resizable=0;points=[];autosize=1;strokeColor=none;fillColor=none;" parent="1" vertex="1">
          <mxGeometry x="440" y="470" width="60" height="40" as="geometry" />
        </mxCell>
      </root>
    </mxGraphModel>
  </diagram>
</mxfile>
